<?xml version="1.0" encoding="UTF-8" standalone="no"?>
<svg
   xmlns:dc="http://purl.org/dc/elements/1.1/"
   xmlns:cc="http://creativecommons.org/ns#"
   xmlns:rdf="http://www.w3.org/1999/02/22-rdf-syntax-ns#"
   xmlns:svg="http://www.w3.org/2000/svg"
   xmlns="http://www.w3.org/2000/svg"
   xmlns:sodipodi="http://sodipodi.sourceforge.net/DTD/sodipodi-0.dtd"
   xmlns:inkscape="http://www.inkscape.org/namespaces/inkscape"
   width="500.00003"
   height="500"
   viewBox="0 0 132.29167 132.29167"
   version="1.1"
   id="svg807"
   inkscape:version="1.0 (4035a4fb49, 2020-05-01)"
   sodipodi:docname="favicon.svg">
  <defs
     id="defs801" />
  <sodipodi:namedview
     units="px"
     id="base"
     pagecolor="#ffffff"
     bordercolor="#666666"
     borderopacity="1.0"
     inkscape:pageopacity="0.0"
     inkscape:pageshadow="2"
     inkscape:zoom="0.35"
     inkscape:cx="125.27902"
     inkscape:cy="421.82996"
     inkscape:document-units="mm"
     inkscape:current-layer="layer1"
     inkscape:document-rotation="0"
     showgrid="false"
     fit-margin-top="0"
     fit-margin-left="0"
     fit-margin-right="0"
     fit-margin-bottom="0"
     inkscape:window-width="1890"
     inkscape:window-height="1020"
     inkscape:window-x="0"
     inkscape:window-y="0"
     inkscape:window-maximized="1" />
  <metadata
     id="metadata804">
    <rdf:RDF>
      <cc:Work
         rdf:about="">
        <dc:format>image/svg+xml</dc:format>
        <dc:type
           rdf:resource="http://purl.org/dc/dcmitype/StillImage" />
        <dc:title></dc:title>
      </cc:Work>
    </rdf:RDF>
  </metadata>
  <g
     inkscape:label="Layer 1"
     inkscape:groupmode="layer"
     id="layer1"
     transform="translate(-43.9604,-36.557491)">
    <path
       id="path756"
       style="fill:#2e3440;fill-opacity:1;fill-rule:nonzero;stroke:none;stroke-width:0.444056"
       d="M 110.10624,160.58082 H 77.033319 c -18.261399,0 -33.072917,-14.8053 -33.072917,-33.07293 0,-9.13558 3.703878,-17.40215 9.692431,-23.38714 5.984999,-5.988551 14.254671,-9.685768 23.380486,-9.685768 h 33.072921 v -0.003 h 34.29718 c 8.45529,0 15.31197,-6.856684 15.31197,-15.311974 v -2.451639 c 0,-8.455289 -6.85668,-15.308864 -15.31197,-15.308864 h -34.29718 v -16.53368 h 33.07291 c 18.26141,0 33.07292,14.805304 33.07292,33.069811 0,9.135139 -3.70388,17.401703 -9.69198,23.390254 -5.985,5.985 -14.25201,9.68222 -23.38094,9.68222 h -33.07291 v 0.003 H 75.809499 c -8.45529,0 -15.312417,6.85712 -15.312417,15.31241 v 2.45164 c 0,8.45529 6.857127,15.30931 15.312417,15.30931 h 34.296741 z" />
  </g>
</svg>
