<?xml version="1.0" encoding="UTF-8" standalone="no"?>
<svg
   xmlns:dc="http://purl.org/dc/elements/1.1/"
   xmlns:cc="http://creativecommons.org/ns#"
   xmlns:rdf="http://www.w3.org/1999/02/22-rdf-syntax-ns#"
   xmlns:svg="http://www.w3.org/2000/svg"
   xmlns="http://www.w3.org/2000/svg"
   xmlns:sodipodi="http://sodipodi.sourceforge.net/DTD/sodipodi-0.dtd"
   xmlns:inkscape="http://www.inkscape.org/namespaces/inkscape"
   sodipodi:docname="for_site.svg"
   inkscape:version="1.0 (4035a4fb49, 2020-05-01)"
   inkscape:export-ydpi="25.4"
   inkscape:export-xdpi="25.4"
   id="svg8"
   version="1.1"
   viewBox="0 0 1685.4318 511.79062"
   height="511.79062mm"
   width="1685.4318mm">
  <defs
     id="defs2" />
  <sodipodi:namedview
     fit-margin-bottom="0"
     fit-margin-right="0"
     fit-margin-left="0"
     fit-margin-top="0"
     inkscape:window-maximized="1"
     inkscape:window-y="0"
     inkscape:window-x="0"
     inkscape:window-height="1020"
     inkscape:window-width="940"
     showgrid="false"
     inkscape:document-rotation="0"
     inkscape:current-layer="layer1"
     inkscape:document-units="mm"
     inkscape:cy="2432.512"
     inkscape:cx="5032.5917"
     inkscape:zoom="0.079716117"
     inkscape:pageshadow="2"
     inkscape:pageopacity="0"
     borderopacity="1.0"
     bordercolor="#666666"
     pagecolor="#ffffff"
     id="base"
     inkscape:pagecheckerboard="true" />
  <metadata
     id="metadata5">
    <rdf:RDF>
      <cc:Work
         rdf:about="">
        <dc:format>image/svg+xml</dc:format>
        <dc:type
           rdf:resource="http://purl.org/dc/dcmitype/StillImage" />
        <dc:title></dc:title>
      </cc:Work>
    </rdf:RDF>
  </metadata>
  <g
     transform="translate(-4.8848844,188.73833)"
     id="layer1"
     inkscape:groupmode="layer"
     inkscape:label="Layer 1">
    <path
       inkscape:export-ydpi="25.4"
       inkscape:export-xdpi="25.4"
       id="path1149"
       style="fill:#2e3440;fill-opacity:1;fill-rule:nonzero;stroke:none;stroke-width:2.69994"
       d="M 205.96943,323.05229 63.779705,180.8599 c -78.514277,-78.51159 -78.538577,-205.840839 0,-284.37942 39.276055,-39.27602 90.739635,-58.89656 142.216715,-58.88307 51.47708,-0.0137 102.92712,19.64754 142.16524,58.88307 l 142.18977,142.189672 0.0139,-0.01391 147.45459,147.454608 c 36.35203,36.35201 95.31062,36.35201 131.66263,-0.002 l 10.54056,-10.53788 c 36.35202,-36.352 36.33858,-95.299832 -0.0139,-131.651842 l -147.45114,-147.451508 71.08138,-71.08403 142.18964,142.192394 c 78.51165,78.511569 78.53866,205.840816 0.0139,284.368676 -39.27604,39.27597 -90.73965,58.8938 -142.23024,58.8938 -51.46626,0 -102.90287,-19.64752 -142.15192,-58.8938 L 419.27112,109.7518 l -0.0139,0.0139 -147.45516,-147.451839 c -36.35201,-36.351969 -95.31334,-36.354751 -131.66536,0 l -10.54056,10.537878 c -36.349318,36.352018 -36.338523,95.299793 0.016,131.651801 l 147.45461,147.45465 z" />
    <g
       inkscape:export-ydpi="25.4"
       inkscape:export-xdpi="25.4"
       transform="matrix(2.6999413,0,0,-2.6999413,1122.2713,-40.060662)"
       id="g1151">
      <path
         id="path1153"
         style="fill:#4c566a;fill-opacity:1;fill-rule:nonzero;stroke:none"
         d="m 0,0 v -29.09 h 14.026 v 28.053 c 0,7.742 -3.137,14.755 -8.214,19.832 -5.078,5.078 -12.091,8.22 -19.838,8.22 -15.495,0 -28.053,-12.563 -28.053,-28.052 V -29.09 h 14.027 V 0 c 0,7.173 5.811,12.988 12.983,12.988 h 2.081 C -5.816,12.988 0,7.173 0,0" />
    </g>
    <g
       inkscape:export-ydpi="25.4"
       inkscape:export-xdpi="25.4"
       transform="matrix(2.6999413,0,0,-2.6999413,1298.996,0.60959322)"
       id="g1155">
      <path
         id="path1157"
         style="fill:#4c566a;fill-opacity:1;fill-rule:nonzero;stroke:none"
         d="m 0,0 h -15.064 c -7.172,0 -12.988,5.812 -12.988,12.983 v 2.08 c 0,7.173 5.816,12.989 12.988,12.989 H 0 Z m -14.026,42.078 c -7.743,0 -14.755,-3.137 -19.833,-8.215 -5.078,-5.077 -8.219,-12.09 -8.219,-19.837 0,-15.494 12.562,-28.052 28.052,-28.052 h 28.052 v 56.104 z" />
    </g>
    <g
       inkscape:export-ydpi="25.4"
       inkscape:export-xdpi="25.4"
       transform="matrix(2.6999413,0,0,-2.6999413,1435.0504,-75.128301)"
       id="g1159">
      <path
         id="path1161"
         style="fill:#4c566a;fill-opacity:1;fill-rule:nonzero;stroke:none"
         d="M 0,0 H 29.09 V 14.026 H 1.038 c -7.743,0 -14.756,-3.137 -19.833,-8.214 -5.078,-5.078 -8.22,-12.091 -8.22,-19.837 0,-15.496 12.563,-28.053 28.053,-28.053 H 29.09 v 14.026 H 0 c -7.172,0 -12.988,5.812 -12.988,12.984 v 2.08 C -12.988,-5.816 -7.172,0 0,0" />
    </g>
    <g
       inkscape:export-ydpi="25.4"
       inkscape:export-xdpi="25.4"
       transform="matrix(2.6999413,0,0,-2.6999413,1595.6428,-40.060662)"
       id="g1163">
      <path
         id="path1165"
         style="fill:#4c566a;fill-opacity:1;fill-rule:nonzero;stroke:none"
         d="M 0,0 V -2.08 C 0,-9.252 5.816,-15.063 12.988,-15.063 H 35.065 V -29.09 H 14.026 c -8.378,0 -15.901,3.675 -21.039,9.501 V -29.09 H -21.039 V 55.067 H -7.013 V 17.515 c 0.388,0.439 0.79,0.869 1.206,1.285 5.078,5.078 12.091,8.215 19.833,8.215 H 35.065 V 12.988 H 12.988 C 5.816,12.988 0,7.173 0,0" />
    </g>
    <g
       inkscape:export-ydpi="25.4"
       inkscape:export-xdpi="25.4"
       transform="matrix(2.6999413,0,0,-2.6999413,1122.2713,187.15618)"
       id="g1167">
      <path
         id="path1169"
         style="fill:#4c566a;fill-opacity:1;fill-rule:nonzero;stroke:none"
         d="m 0,0 v -29.091 h 14.026 v 28.053 c 0,7.742 -3.137,14.755 -8.214,19.833 -5.078,5.077 -12.091,8.219 -19.838,8.219 -15.495,0 -28.053,-12.563 -28.053,-28.052 v -28.053 h 14.027 V 0 c 0,7.172 5.811,12.988 12.983,12.988 h 2.081 C -5.816,12.988 0,7.172 0,0" />
    </g>
    <g
       inkscape:export-ydpi="25.4"
       inkscape:export-xdpi="25.4"
       transform="matrix(2.6999413,0,0,-2.6999413,1513.5543,189.95899)"
       id="g1171">
      <path
         id="path1173"
         style="fill:#4c566a;fill-opacity:1;fill-rule:nonzero;stroke:none"
         d="M 0,0 V -28.053 H -14.026 V 1.038 c 0,7.172 -5.816,12.988 -12.989,12.988 h -2.08 c -7.172,0 -12.984,-5.816 -12.984,-12.988 V -28.053 H -56.091 V 1.038 c 0,7.172 -5.816,12.988 -12.988,12.988 h -2.08 c -7.173,0 -12.984,-5.816 -12.984,-12.988 V -28.053 H -98.169 V 0 c 0,15.489 12.558,28.052 28.052,28.052 7.747,0 14.761,-3.142 19.838,-8.219 0.411,-0.411 0.809,-0.837 1.197,-1.272 5.138,5.821 12.656,9.491 21.03,9.491 7.747,0 14.76,-3.142 19.837,-8.219 C -3.137,14.755 0,7.742 0,0" />
    </g>
    <path
       inkscape:export-ydpi="25.4"
       inkscape:export-xdpi="25.4"
       id="path1175"
       style="fill:#4c566a;fill-opacity:1;fill-rule:nonzero;stroke:none;stroke-width:2.69994"
       d="m 1185.3875,114.22133 h 37.8693 v 151.47745 h -37.8693 z" />
    <g
       inkscape:export-ydpi="25.4"
       inkscape:export-xdpi="25.4"
       transform="matrix(2.6999413,0,0,-2.6999413,1611.7753,152.08844)"
       id="g1177">
      <path
         id="path1179"
         style="fill:#4c566a;fill-opacity:1;fill-rule:nonzero;stroke:none"
         d="M 0,0 H 29.09 V 14.025 H 1.038 c -7.742,0 -14.755,-3.136 -19.833,-8.213 -5.078,-5.079 -8.219,-12.091 -8.219,-19.838 0,-15.495 12.562,-28.053 28.052,-28.053 H 29.09 v 14.026 H 0 c -7.172,0 -12.988,5.812 -12.988,12.984 v 2.081 C -12.988,-5.816 -7.172,0 0,0" />
    </g>
    <path
       inkscape:export-ydpi="25.4"
       inkscape:export-xdpi="25.4"
       id="path1181"
       style="fill:#2e3440;fill-opacity:1;fill-rule:nonzero;stroke:none;stroke-width:2.69994"
       d="m 1620.8906,171.02536 h 37.8695 v 37.86938 h -37.8695 z" />
  </g>
</svg>
